<?xml version="1.0" encoding="UTF-8"?>
<svg width="32" height="32" viewBox="0 0 32 32" fill="none" xmlns="http://www.w3.org/2000/svg">
  <circle cx="16" cy="16" r="16" fill="#0F172A"/>
  <path d="M16 6C15.4477 6 15 6.44772 15 7V9C15 9.55228 15.4477 10 16 10C16.5523 10 17 9.55228 17 9V7C17 6.44772 16.5523 6 16 6Z" fill="#FFF"/>
  <path d="M16 22C15.4477 22 15 22.4477 15 23V25C15 25.5523 15.4477 26 16 26C16.5523 26 17 25.5523 17 25V23C17 22.4477 16.5523 22 16 22Z" fill="#FFF"/>
  <path d="M25 15H23C22.4477 15 22 15.4477 22 16C22 16.5523 22.4477 17 23 17H25C25.5523 17 26 16.5523 26 16C26 15.4477 25.5523 15 25 15Z" fill="#FFF"/>
  <path d="M9 15H7C6.44772 15 6 15.4477 6 16C6 16.5523 6.44772 17 7 17H9C9.55228 17 10 16.5523 10 16C10 15.4477 9.55228 15 9 15Z" fill="#FFF"/>
  <circle cx="16" cy="16" r="6" fill="#FFF"/>
  <circle cx="16" cy="16" r="4" fill="#0F172A"/>
</svg>
